<?xml version="1.0" standalone="no"?>
<!DOCTYPE svg PUBLIC "-//W3C//DTD SVG 20010904//EN"
 "http://www.w3.org/TR/2001/REC-SVG-20010904/DTD/svg10.dtd">
<svg version="1.0" xmlns="http://www.w3.org/2000/svg"
 width="325.000000pt" height="417.000000pt" viewBox="0 0 325.000000 417.000000"
 preserveAspectRatio="xMidYMid meet">
<metadata>
Created by potrace 1.16, written by Peter Selinger 2001-2019
</metadata>
<g transform="translate(0.000000,417.000000) scale(0.100000,-0.100000)"
fill="#000000" stroke="none">
<path d="M1360 3920 c-261 -24 -461 -119 -651 -309 -125 -126 -211 -250 -303
-441 -179 -370 -256 -734 -256 -1210 0 -459 80 -834 255 -1195 236 -490 564
-733 1013 -752 488 -21 838 199 1096 688 137 261 221 547 261 894 21 183 21
552 0 739 -74 670 -355 1213 -749 1450 -175 105 -431 157 -666 136z m276 -250
c173 -85 295 -332 364 -739 95 -560 88 -1519 -15 -2028 -53 -260 -135 -453
-240 -558 -95 -96 -201 -134 -321 -115 -137 23 -233 108 -319 283 -151 312
-214 802 -202 1577 7 430 23 629 73 897 78 422 220 662 421 713 68 17 170 4
239 -30z"/>
</g>
</svg>
