<?xml version="1.0" standalone="no"?>
<!DOCTYPE svg PUBLIC "-//W3C//DTD SVG 20010904//EN"
 "http://www.w3.org/TR/2001/REC-SVG-20010904/DTD/svg10.dtd">
<svg version="1.0" xmlns="http://www.w3.org/2000/svg"
 width="337.000000pt" height="853.000000pt" viewBox="0 0 337.000000 853.000000"
 preserveAspectRatio="xMidYMid meet">
<metadata>
Created by potrace 1.16, written by Peter Selinger 2001-2019
</metadata>
<g transform="translate(0.000000,853.000000) scale(0.100000,-0.100000)"
fill="#000000" stroke="none">
<path d="M2730 8050 c-41 -77 -50 -488 -60 -2850 -8 -1920 -19 -2807 -36
-2987 l-5 -62 -27 10 c-14 6 -48 30 -75 55 -122 115 -393 195 -667 196 -543 3
-1110 -298 -1428 -759 -63 -93 -133 -233 -161 -328 -47 -154 -64 -352 -41
-476 41 -219 299 -418 621 -479 255 -49 581 -20 882 76 148 48 366 154 502
245 134 89 309 260 386 374 29 44 88 156 131 249 l78 169 0 2726 c0 3057 -9
3711 -50 3829 -13 36 -34 42 -50 12z m-415 -5865 c95 -20 203 -75 252 -128 76
-83 101 -204 68 -332 -113 -433 -1155 -1107 -1780 -1151 -110 -8 -235 14 -309
54 -63 34 -120 101 -143 165 -23 66 -22 200 1 279 73 251 571 666 1084 903
144 67 340 137 501 181 169 47 221 51 326 29z"/>
</g>
</svg>
