<?xml version="1.0" standalone="no"?>
<!DOCTYPE svg PUBLIC "-//W3C//DTD SVG 20010904//EN"
 "http://www.w3.org/TR/2001/REC-SVG-20010904/DTD/svg10.dtd">
<svg version="1.0" xmlns="http://www.w3.org/2000/svg"
 width="202.000000pt" height="195.000000pt" viewBox="0 0 202.000000 195.000000"
 preserveAspectRatio="xMidYMid meet">
<metadata>
Created by potrace 1.16, written by Peter Selinger 2001-2019
</metadata>
<g transform="translate(0.000000,195.000000) scale(0.100000,-0.100000)"
fill="#000000" stroke="none">
<path d="M580 1135 c0 -312 -4 -555 -9 -555 -5 0 -14 6 -20 14 -6 7 -32 19
-56 26 -167 47 -375 -95 -375 -254 0 -39 5 -53 28 -76 103 -103 369 -34 438
113 l24 52 0 618 c0 542 -2 617 -15 617 -13 0 -15 -68 -15 -555z m-46 -555
c37 -14 52 -51 36 -90 -30 -73 -181 -175 -295 -201 -90 -20 -139 15 -121 87
15 59 149 158 265 195 66 21 81 22 115 9z"/>
<path d="M815 845 c-30 -29 -32 -55 -6 -86 l19 -24 294 -3 c287 -3 295 -2 321
18 17 14 27 31 27 48 -1 69 -17 72 -345 72 l-286 0 -24 -25z"/>
<path d="M810 568 c-27 -29 -25 -54 5 -83 l24 -25 296 0 c282 0 296 1 315 20
25 25 26 72 2 93 -16 15 -54 17 -320 17 -297 0 -302 0 -322 -22z"/>
</g>
</svg>
